# xmcd CD database file
#
# Track frame offsets:
#	150
#	11931
#	27437
#	41085
#	50703
#	65429
#	87719
#	101090
#	115703
#	128369
#	143002
#	159378
#	172067
#
# Disc length: 2493 seconds
#
# Revision: 0
# Processed by: cddbd v1.5.1PL2 Copyright (c) Steve Scherf et al.
# Submitted via: CDex 1.51
#
DISCID=b409bb0d
DTITLE=Hege Bringsverd - Just me...
DYEAR=2006
DGENRE=Country
TTITLE0=It only hurts when I laugh
TTITLE1=Love me a little bit longer
TTITLE2=Love's not everything
TTITLE3=Teach me to cheat
TTITLE4=Under the influence of love
TTITLE5=When I fall
TTITLE6=Mama he's crazy
TTITLE7=Jones on the jukebox
TTITLE8=What part of no
TTITLE9=Twice the fool I once was
TTITLE10=Comming up with a heartache
TTITLE11=My hands are full
TTITLE12=There's no place
EXTD=YEAR: 2006
EXTT0=
EXTT1=
EXTT2=
EXTT3=
EXTT4=
EXTT5=
EXTT6=
EXTT7=
EXTT8=
EXTT9=
EXTT10=
EXTT11=
EXTT12=
PLAYORDER=
